# xmcd
#
# Track frame offsets:
#        150
#        10730
#        24255
#        35680
#        50105
#        64580
#        76670
#        89792
#        103285
#        114307
#        127650
#        140795
#        152422
#        165062
#
# Disc length: 2395 seconds
#
# Revision: 0
# Processed by: cddbd v1.5PL3 Copyright (c) Steve Scherf et al.
# Submitted via: ExactAudioCopy v0.95a4
#
DISCID=a609590e
DTITLE=Various Artist - The Glorious History Of Black Music
DYEAR=1900
DGENRE=
TTITLE0=AMAZING GRACE/MAHALIA JACKSON
TTITLE1=MOVING UP THAT SHINING WAY/DIXIE HUMMINGBIRDS
TTITLE2=UP ABOVE MY HEAD/SISTER ROSETTA THAPRE
TTITLE3=TAKE MY HAND, PRECIOUS LOAD/SELAH JUBILEE SINGERS
TTITLE4=DIDN'T IT RAIN/NORFOLK JUBILEE QUARTET
TTITLE5=HOLY GHOST GETTING US READY/DEEP SOUTH BOYS
TTITLE6=SINCE I LAID BURDEN DOWN(GLORY, GLORY, HALLELUJAH)/THE GOLDEN
TTITLE6=ECHOES
TTITLE7=MOTHERLESS CHILDREN HAD HARD TIMES/DIXIE HUMMINGBIRDS
TTITLE8=JESUS GAVE ME WATER/THE PILGRIM TRAVELERS
TTITLE9=JUST A LITTLE TALK WITH JESUS/ DEEP SOUTH BOYS
TTITLE10=LOAD JESUS/SISTER WYNONA CARR
TTITLE11=ONE MOMENT OF GLORY/SELAH JUBILEE SINGERS
TTITLE12=CANAAN LAND/THE FAIRFIELD FOUR
TTITLE13=I CAN PUT MY TRUST IN JESUS/MAHALIA JACKSON
EXTD=
EXTT0=
EXTT1=
EXTT2=
EXTT3=
EXTT4=
EXTT5=
EXTT6=
EXTT7=
EXTT8=
EXTT9=
EXTT10=
EXTT11=
EXTT12=
EXTT13=
PLAYORDER=
